# xmcd
#
# Track frame offsets:
# 150
# 16485
# 32904
# 52392
# 68725
# 84987
# 103212
# 119708
# 136174
# 155551
# 171860
# 188180
#
# Disc length: 2752 seconds
#
#
# Revision: 0
# Processed by: cddbd v1.5.2PL0 Copyright (c) Steve Scherf et al.
# Submitted via: FreeRIP 2.96 
#
DISCID=ac0abe0c
DTITLE=Joanna and Russell - 一生一世
DYEAR=1900
DGENRE=Other
TTITLE0=好好戀愛 - 王祖藍/彭家麗
TTITLE1=一個永不言悔的決定 - 黎劍星/龐秋雁
TTITLE2=誠願 - 張崇基/鄭瑞芬
TTITLE3=以心相待(原曲"I will serve you") - 楊羚
TTITLE4=I'm Always Here - 鄧婉玲
TTITLE5=一生一世 - 張崇德/劉美娟
TTITLE6=MMO - 好好戀愛
TTITLE7=MMO - 一個永不言悔的決定
TTITLE8=MMO - 誠願
TTITLE9=MMO - 以心相待(原曲"I will serve you")
TTITLE10=MMO - I'm Always Here
TTITLE11=MMO - 一生一世
EXTD=
EXTT0=
EXTT1=
EXTT2=
EXTT3=
EXTT4=
EXTT5=
EXTT6=
EXTT7=
EXTT8=
EXTT9=
EXTT10=
EXTT11=
PLAYORDER=
